<mxfile host="Electron" modified="2024-03-10T00:50:30.548Z" agent="Mozilla/5.0 (Macintosh; Intel Mac OS X 10_15_7) AppleWebKit/537.36 (KHTML, like Gecko) draw.io/23.1.5 Chrome/120.0.6099.109 Electron/28.1.0 Safari/537.36" etag="8KaemB0KpnWOPzSsrv7r" version="23.1.5" type="device">
  <diagram name="Sequence" id="1xTwtHDa3UVUZrxySDGf">
    <mxGraphModel dx="2767" dy="1105" grid="1" gridSize="10" guides="1" tooltips="1" connect="1" arrows="1" fold="1" page="1" pageScale="1" pageWidth="850" pageHeight="1100" math="0" shadow="0">
      <root>
        <mxCell id="0" />
        <mxCell id="1" parent="0" />
        <mxCell id="S2ejGNxJrMZWUgMRFs39-2" value="Logo" style="strokeWidth=2;html=1;shape=mxgraph.flowchart.display;whiteSpace=wrap;fillColor=#0050ef;fontColor=#ffffff;strokeColor=#001DBC;" parent="1" vertex="1">
          <mxGeometry x="-790" y="410" width="100" height="60" as="geometry" />
        </mxCell>
        <mxCell id="PkMX_lYDS1bQ4Ew8CNIa-1" value="Event Log Intro" style="strokeWidth=2;html=1;shape=mxgraph.flowchart.display;whiteSpace=wrap;fillColor=#0050ef;fontColor=#ffffff;strokeColor=#001DBC;" parent="1" vertex="1">
          <mxGeometry x="-590" y="410" width="100" height="60" as="geometry" />
        </mxCell>
        <mxCell id="PkMX_lYDS1bQ4Ew8CNIa-2" value="Event Log" style="strokeWidth=2;html=1;shape=mxgraph.flowchart.display;whiteSpace=wrap;fillColor=#1ba1e2;fontColor=#ffffff;strokeColor=#006EAF;" parent="1" vertex="1">
          <mxGeometry x="-590" y="520" width="100" height="60" as="geometry" />
        </mxCell>
        <mxCell id="PkMX_lYDS1bQ4Ew8CNIa-3" value="" style="endArrow=classic;html=1;rounded=0;exitX=1;exitY=0.5;exitDx=0;exitDy=0;exitPerimeter=0;entryX=0;entryY=0.5;entryDx=0;entryDy=0;entryPerimeter=0;" parent="1" source="S2ejGNxJrMZWUgMRFs39-2" target="PkMX_lYDS1bQ4Ew8CNIa-1" edge="1">
          <mxGeometry width="50" height="50" relative="1" as="geometry">
            <mxPoint x="-720" y="350" as="sourcePoint" />
            <mxPoint x="-670" y="300" as="targetPoint" />
          </mxGeometry>
        </mxCell>
        <mxCell id="PkMX_lYDS1bQ4Ew8CNIa-4" value="" style="endArrow=classic;html=1;rounded=0;exitX=0.5;exitY=1;exitDx=0;exitDy=0;exitPerimeter=0;entryX=0.5;entryY=0;entryDx=0;entryDy=0;entryPerimeter=0;" parent="1" source="PkMX_lYDS1bQ4Ew8CNIa-1" target="PkMX_lYDS1bQ4Ew8CNIa-2" edge="1">
          <mxGeometry width="50" height="50" relative="1" as="geometry">
            <mxPoint x="-680" y="450" as="sourcePoint" />
            <mxPoint x="-580" y="450" as="targetPoint" />
          </mxGeometry>
        </mxCell>
        <mxCell id="PkMX_lYDS1bQ4Ew8CNIa-5" value="Network Intro" style="strokeWidth=2;html=1;shape=mxgraph.flowchart.display;whiteSpace=wrap;fillColor=#0050ef;fontColor=#ffffff;strokeColor=#001DBC;" parent="1" vertex="1">
          <mxGeometry x="-390" y="410" width="100" height="60" as="geometry" />
        </mxCell>
        <mxCell id="PkMX_lYDS1bQ4Ew8CNIa-6" value="" style="endArrow=classic;html=1;rounded=0;exitX=1;exitY=0.5;exitDx=0;exitDy=0;exitPerimeter=0;" parent="1" source="PkMX_lYDS1bQ4Ew8CNIa-1" target="PkMX_lYDS1bQ4Ew8CNIa-5" edge="1">
          <mxGeometry width="50" height="50" relative="1" as="geometry">
            <mxPoint x="-420" y="510" as="sourcePoint" />
            <mxPoint x="-320" y="510" as="targetPoint" />
          </mxGeometry>
        </mxCell>
        <mxCell id="PkMX_lYDS1bQ4Ew8CNIa-7" value="" style="endArrow=classic;html=1;rounded=0;exitX=1;exitY=0.5;exitDx=0;exitDy=0;exitPerimeter=0;entryX=0.2;entryY=0.86;entryDx=0;entryDy=0;entryPerimeter=0;" parent="1" source="PkMX_lYDS1bQ4Ew8CNIa-2" target="PkMX_lYDS1bQ4Ew8CNIa-5" edge="1">
          <mxGeometry width="50" height="50" relative="1" as="geometry">
            <mxPoint x="-480" y="450" as="sourcePoint" />
            <mxPoint x="-380" y="450" as="targetPoint" />
          </mxGeometry>
        </mxCell>
        <mxCell id="PkMX_lYDS1bQ4Ew8CNIa-8" value="" style="endArrow=classic;html=1;rounded=0;exitX=0.5;exitY=1;exitDx=0;exitDy=0;exitPerimeter=0;entryX=0.5;entryY=0;entryDx=0;entryDy=0;" parent="1" source="PkMX_lYDS1bQ4Ew8CNIa-5" target="H5PknQgmsZWOqS9MuiEW-1" edge="1">
          <mxGeometry width="50" height="50" relative="1" as="geometry">
            <mxPoint x="-330" y="490" as="sourcePoint" />
            <mxPoint x="-320" y="500" as="targetPoint" />
          </mxGeometry>
        </mxCell>
        <mxCell id="PkMX_lYDS1bQ4Ew8CNIa-9" value="Ethernet?" style="rhombus;whiteSpace=wrap;html=1;fillColor=#f0a30a;fontColor=#000000;strokeColor=#BD7000;" parent="1" vertex="1">
          <mxGeometry x="-240" y="620" width="80" height="80" as="geometry" />
        </mxCell>
        <mxCell id="PkMX_lYDS1bQ4Ew8CNIa-10" value="Ethernet" style="strokeWidth=2;html=1;shape=mxgraph.flowchart.display;whiteSpace=wrap;fillColor=#1ba1e2;fontColor=#ffffff;strokeColor=#006EAF;" parent="1" vertex="1">
          <mxGeometry x="-130" y="690" width="100" height="60" as="geometry" />
        </mxCell>
        <mxCell id="PkMX_lYDS1bQ4Ew8CNIa-11" value="No" style="endArrow=classic;html=1;rounded=0;entryX=0.2;entryY=0.86;entryDx=0;entryDy=0;entryPerimeter=0;exitX=1;exitY=0.5;exitDx=0;exitDy=0;" parent="1" source="PkMX_lYDS1bQ4Ew8CNIa-9" target="PkMX_lYDS1bQ4Ew8CNIa-14" edge="1">
          <mxGeometry x="-0.8093" y="1" width="50" height="50" relative="1" as="geometry">
            <mxPoint x="-100" y="750" as="sourcePoint" />
            <mxPoint x="-330" y="520" as="targetPoint" />
            <mxPoint y="-1" as="offset" />
          </mxGeometry>
        </mxCell>
        <mxCell id="PkMX_lYDS1bQ4Ew8CNIa-12" value="Yes" style="endArrow=classic;html=1;rounded=0;edgeStyle=orthogonalEdgeStyle;entryX=0;entryY=0.5;entryDx=0;entryDy=0;entryPerimeter=0;exitX=0.5;exitY=1;exitDx=0;exitDy=0;fillColor=#60a917;strokeColor=#2D7600;" parent="1" source="PkMX_lYDS1bQ4Ew8CNIa-9" target="PkMX_lYDS1bQ4Ew8CNIa-10" edge="1">
          <mxGeometry x="-0.7778" width="50" height="50" relative="1" as="geometry">
            <mxPoint x="-310" y="640" as="sourcePoint" />
            <mxPoint x="-240" y="800" as="targetPoint" />
            <mxPoint as="offset" />
          </mxGeometry>
        </mxCell>
        <mxCell id="PkMX_lYDS1bQ4Ew8CNIa-13" value="WiFi" style="strokeWidth=2;html=1;shape=mxgraph.flowchart.display;whiteSpace=wrap;fillColor=#1ba1e2;fontColor=#ffffff;strokeColor=#006EAF;" parent="1" vertex="1">
          <mxGeometry x="-250" y="520" width="100" height="60" as="geometry" />
        </mxCell>
        <mxCell id="PkMX_lYDS1bQ4Ew8CNIa-14" value="Hardware Intro" style="strokeWidth=2;html=1;shape=mxgraph.flowchart.display;whiteSpace=wrap;fillColor=#0050ef;fontColor=#ffffff;strokeColor=#001DBC;" parent="1" vertex="1">
          <mxGeometry x="40" y="410" width="100" height="60" as="geometry" />
        </mxCell>
        <mxCell id="PkMX_lYDS1bQ4Ew8CNIa-15" value="" style="endArrow=classic;html=1;rounded=0;exitX=1;exitY=0.5;exitDx=0;exitDy=0;exitPerimeter=0;entryX=0;entryY=0.5;entryDx=0;entryDy=0;entryPerimeter=0;" parent="1" source="PkMX_lYDS1bQ4Ew8CNIa-5" target="PkMX_lYDS1bQ4Ew8CNIa-14" edge="1">
          <mxGeometry width="50" height="50" relative="1" as="geometry">
            <mxPoint x="-330" y="480" as="sourcePoint" />
            <mxPoint x="-330" y="520" as="targetPoint" />
          </mxGeometry>
        </mxCell>
        <mxCell id="PkMX_lYDS1bQ4Ew8CNIa-18" value="Hardware" style="strokeWidth=2;html=1;shape=mxgraph.flowchart.display;whiteSpace=wrap;fillColor=#1ba1e2;fontColor=#ffffff;strokeColor=#006EAF;" parent="1" vertex="1">
          <mxGeometry x="40" y="520" width="100" height="60" as="geometry" />
        </mxCell>
        <mxCell id="PkMX_lYDS1bQ4Ew8CNIa-19" value="" style="endArrow=classic;html=1;rounded=0;exitX=1;exitY=0.5;exitDx=0;exitDy=0;exitPerimeter=0;entryX=0.2;entryY=0.86;entryDx=0;entryDy=0;entryPerimeter=0;fillColor=#60a917;strokeColor=#2D7600;" parent="1" source="PkMX_lYDS1bQ4Ew8CNIa-10" target="PkMX_lYDS1bQ4Ew8CNIa-14" edge="1">
          <mxGeometry width="50" height="50" relative="1" as="geometry">
            <mxPoint x="-130" y="580" as="sourcePoint" />
            <mxPoint x="-10" y="492" as="targetPoint" />
          </mxGeometry>
        </mxCell>
        <mxCell id="PkMX_lYDS1bQ4Ew8CNIa-21" value="" style="endArrow=classic;html=1;rounded=0;entryX=0.565;entryY=0.004;entryDx=0;entryDy=0;entryPerimeter=0;exitX=0.571;exitY=1.015;exitDx=0;exitDy=0;exitPerimeter=0;" parent="1" source="PkMX_lYDS1bQ4Ew8CNIa-14" target="PkMX_lYDS1bQ4Ew8CNIa-18" edge="1">
          <mxGeometry width="50" height="50" relative="1" as="geometry">
            <mxPoint x="90" y="480" as="sourcePoint" />
            <mxPoint x="100" y="510" as="targetPoint" />
          </mxGeometry>
        </mxCell>
        <mxCell id="PkMX_lYDS1bQ4Ew8CNIa-22" value="Software Intro" style="strokeWidth=2;html=1;shape=mxgraph.flowchart.display;whiteSpace=wrap;fillColor=#0050ef;fontColor=#ffffff;strokeColor=#001DBC;" parent="1" vertex="1">
          <mxGeometry x="230" y="410" width="100" height="60" as="geometry" />
        </mxCell>
        <mxCell id="PkMX_lYDS1bQ4Ew8CNIa-23" value="Software" style="strokeWidth=2;html=1;shape=mxgraph.flowchart.display;whiteSpace=wrap;fillColor=#1ba1e2;fontColor=#ffffff;strokeColor=#006EAF;" parent="1" vertex="1">
          <mxGeometry x="230" y="520" width="100" height="60" as="geometry" />
        </mxCell>
        <mxCell id="PkMX_lYDS1bQ4Ew8CNIa-24" value="" style="endArrow=classic;html=1;rounded=0;exitX=1;exitY=0.5;exitDx=0;exitDy=0;exitPerimeter=0;entryX=0;entryY=0.5;entryDx=0;entryDy=0;entryPerimeter=0;" parent="1" source="PkMX_lYDS1bQ4Ew8CNIa-14" target="PkMX_lYDS1bQ4Ew8CNIa-22" edge="1">
          <mxGeometry width="50" height="50" relative="1" as="geometry">
            <mxPoint x="140" y="350" as="sourcePoint" />
            <mxPoint x="240" y="350" as="targetPoint" />
          </mxGeometry>
        </mxCell>
        <mxCell id="PkMX_lYDS1bQ4Ew8CNIa-25" value="" style="endArrow=classic;html=1;rounded=0;exitX=0.5;exitY=1;exitDx=0;exitDy=0;exitPerimeter=0;entryX=0.5;entryY=0;entryDx=0;entryDy=0;entryPerimeter=0;" parent="1" source="PkMX_lYDS1bQ4Ew8CNIa-22" target="PkMX_lYDS1bQ4Ew8CNIa-23" edge="1">
          <mxGeometry width="50" height="50" relative="1" as="geometry">
            <mxPoint x="350" y="480" as="sourcePoint" />
            <mxPoint x="350" y="520" as="targetPoint" />
          </mxGeometry>
        </mxCell>
        <mxCell id="PkMX_lYDS1bQ4Ew8CNIa-26" value="Errors?" style="rhombus;whiteSpace=wrap;html=1;fillColor=#f0a30a;fontColor=#000000;strokeColor=#BD7000;" parent="1" vertex="1">
          <mxGeometry x="430" y="400" width="80" height="80" as="geometry" />
        </mxCell>
        <mxCell id="PkMX_lYDS1bQ4Ew8CNIa-27" value="" style="endArrow=classic;html=1;rounded=0;exitX=1;exitY=0.5;exitDx=0;exitDy=0;exitPerimeter=0;entryX=0;entryY=0.5;entryDx=0;entryDy=0;" parent="1" source="PkMX_lYDS1bQ4Ew8CNIa-22" target="PkMX_lYDS1bQ4Ew8CNIa-26" edge="1">
          <mxGeometry width="50" height="50" relative="1" as="geometry">
            <mxPoint x="390" y="500" as="sourcePoint" />
            <mxPoint x="480" y="500" as="targetPoint" />
          </mxGeometry>
        </mxCell>
        <mxCell id="PkMX_lYDS1bQ4Ew8CNIa-28" value="" style="endArrow=classic;html=1;rounded=0;exitX=1;exitY=0.5;exitDx=0;exitDy=0;exitPerimeter=0;entryX=0.2;entryY=0.86;entryDx=0;entryDy=0;entryPerimeter=0;" parent="1" source="PkMX_lYDS1bQ4Ew8CNIa-18" target="PkMX_lYDS1bQ4Ew8CNIa-22" edge="1">
          <mxGeometry width="50" height="50" relative="1" as="geometry">
            <mxPoint x="160" y="460" as="sourcePoint" />
            <mxPoint x="220" y="470" as="targetPoint" />
          </mxGeometry>
        </mxCell>
        <mxCell id="PkMX_lYDS1bQ4Ew8CNIa-29" value="Yes" style="endArrow=classic;html=1;rounded=0;exitX=1;exitY=0.5;exitDx=0;exitDy=0;" parent="1" source="PkMX_lYDS1bQ4Ew8CNIa-26" target="PkMX_lYDS1bQ4Ew8CNIa-32" edge="1">
          <mxGeometry x="-0.5556" width="50" height="50" relative="1" as="geometry">
            <mxPoint x="540" y="430" as="sourcePoint" />
            <mxPoint x="630" y="440" as="targetPoint" />
            <mxPoint as="offset" />
          </mxGeometry>
        </mxCell>
        <mxCell id="PkMX_lYDS1bQ4Ew8CNIa-31" value="Auth Token?" style="rhombus;whiteSpace=wrap;html=1;fillColor=#f0a30a;fontColor=#000000;strokeColor=#BD7000;" parent="1" vertex="1">
          <mxGeometry x="790" y="400" width="80" height="80" as="geometry" />
        </mxCell>
        <mxCell id="PkMX_lYDS1bQ4Ew8CNIa-32" value="Errors Intro" style="strokeWidth=2;html=1;shape=mxgraph.flowchart.display;whiteSpace=wrap;fillColor=#0050ef;fontColor=#ffffff;strokeColor=#001DBC;" parent="1" vertex="1">
          <mxGeometry x="600" y="410" width="100" height="60" as="geometry" />
        </mxCell>
        <mxCell id="PkMX_lYDS1bQ4Ew8CNIa-33" value="Errors" style="strokeWidth=2;html=1;shape=mxgraph.flowchart.display;whiteSpace=wrap;fillColor=#1ba1e2;fontColor=#ffffff;strokeColor=#006EAF;" parent="1" vertex="1">
          <mxGeometry x="600" y="520" width="100" height="60" as="geometry" />
        </mxCell>
        <mxCell id="PkMX_lYDS1bQ4Ew8CNIa-34" value="" style="endArrow=classic;html=1;rounded=0;exitX=0.5;exitY=1;exitDx=0;exitDy=0;exitPerimeter=0;entryX=0.5;entryY=0;entryDx=0;entryDy=0;entryPerimeter=0;" parent="1" source="PkMX_lYDS1bQ4Ew8CNIa-32" target="PkMX_lYDS1bQ4Ew8CNIa-33" edge="1">
          <mxGeometry width="50" height="50" relative="1" as="geometry">
            <mxPoint x="760" y="480" as="sourcePoint" />
            <mxPoint x="760" y="520" as="targetPoint" />
          </mxGeometry>
        </mxCell>
        <mxCell id="PkMX_lYDS1bQ4Ew8CNIa-36" value="" style="endArrow=classic;html=1;rounded=0;exitX=1;exitY=0.5;exitDx=0;exitDy=0;exitPerimeter=0;entryX=0;entryY=0.5;entryDx=0;entryDy=0;" parent="1" source="PkMX_lYDS1bQ4Ew8CNIa-32" target="PkMX_lYDS1bQ4Ew8CNIa-31" edge="1">
          <mxGeometry width="50" height="50" relative="1" as="geometry">
            <mxPoint x="680" y="510" as="sourcePoint" />
            <mxPoint x="780" y="510" as="targetPoint" />
          </mxGeometry>
        </mxCell>
        <mxCell id="PkMX_lYDS1bQ4Ew8CNIa-37" value="" style="endArrow=classic;html=1;rounded=0;exitX=1;exitY=0.5;exitDx=0;exitDy=0;exitPerimeter=0;entryX=0;entryY=1;entryDx=0;entryDy=0;" parent="1" source="PkMX_lYDS1bQ4Ew8CNIa-33" target="PkMX_lYDS1bQ4Ew8CNIa-31" edge="1">
          <mxGeometry width="50" height="50" relative="1" as="geometry">
            <mxPoint x="780" y="594" as="sourcePoint" />
            <mxPoint x="890" y="506" as="targetPoint" />
          </mxGeometry>
        </mxCell>
        <mxCell id="PkMX_lYDS1bQ4Ew8CNIa-38" value="Auth Token Intro" style="strokeWidth=2;html=1;shape=mxgraph.flowchart.display;whiteSpace=wrap;fillColor=#0050ef;fontColor=#ffffff;strokeColor=#001DBC;" parent="1" vertex="1">
          <mxGeometry x="950" y="410" width="100" height="60" as="geometry" />
        </mxCell>
        <mxCell id="PkMX_lYDS1bQ4Ew8CNIa-39" value="Auth Token" style="strokeWidth=2;html=1;shape=mxgraph.flowchart.display;whiteSpace=wrap;fillColor=#1ba1e2;fontColor=#ffffff;strokeColor=#006EAF;" parent="1" vertex="1">
          <mxGeometry x="950" y="520" width="100" height="60" as="geometry" />
        </mxCell>
        <mxCell id="PkMX_lYDS1bQ4Ew8CNIa-40" value="" style="endArrow=classic;html=1;rounded=0;exitX=0.5;exitY=1;exitDx=0;exitDy=0;exitPerimeter=0;entryX=0.5;entryY=0;entryDx=0;entryDy=0;entryPerimeter=0;" parent="1" source="PkMX_lYDS1bQ4Ew8CNIa-38" target="PkMX_lYDS1bQ4Ew8CNIa-39" edge="1">
          <mxGeometry width="50" height="50" relative="1" as="geometry">
            <mxPoint x="1110" y="480" as="sourcePoint" />
            <mxPoint x="1110" y="520" as="targetPoint" />
          </mxGeometry>
        </mxCell>
        <mxCell id="PkMX_lYDS1bQ4Ew8CNIa-41" value="Yes" style="endArrow=classic;html=1;rounded=0;exitX=1;exitY=0.5;exitDx=0;exitDy=0;fillColor=#60a917;strokeColor=#2D7600;" parent="1" source="PkMX_lYDS1bQ4Ew8CNIa-31" target="PkMX_lYDS1bQ4Ew8CNIa-38" edge="1">
          <mxGeometry x="-0.5" width="50" height="50" relative="1" as="geometry">
            <mxPoint x="910" y="350" as="sourcePoint" />
            <mxPoint x="1010" y="350" as="targetPoint" />
            <mxPoint as="offset" />
          </mxGeometry>
        </mxCell>
        <mxCell id="PkMX_lYDS1bQ4Ew8CNIa-42" value="No" style="endArrow=classic;html=1;rounded=0;exitX=0.5;exitY=0;exitDx=0;exitDy=0;edgeStyle=orthogonalEdgeStyle;entryX=0.5;entryY=0;entryDx=0;entryDy=0;entryPerimeter=0;" parent="1" source="PkMX_lYDS1bQ4Ew8CNIa-31" target="PkMX_lYDS1bQ4Ew8CNIa-43" edge="1">
          <mxGeometry x="-0.7897" width="50" height="50" relative="1" as="geometry">
            <mxPoint x="830" y="390" as="sourcePoint" />
            <mxPoint x="1200" y="430" as="targetPoint" />
            <Array as="points">
              <mxPoint x="830" y="380" />
              <mxPoint x="1160" y="380" />
            </Array>
            <mxPoint as="offset" />
          </mxGeometry>
        </mxCell>
        <mxCell id="PkMX_lYDS1bQ4Ew8CNIa-43" value="Event Log Intro" style="verticalLabelPosition=bottom;verticalAlign=top;html=1;shape=mxgraph.flowchart.on-page_reference;fillColor=#a20025;fontColor=#ffffff;strokeColor=#6F0000;" parent="1" vertex="1">
          <mxGeometry x="1130" y="410" width="60" height="60" as="geometry" />
        </mxCell>
        <mxCell id="PkMX_lYDS1bQ4Ew8CNIa-44" value="" style="endArrow=classic;html=1;rounded=0;exitX=1;exitY=0.5;exitDx=0;exitDy=0;exitPerimeter=0;entryX=0.145;entryY=0.855;entryDx=0;entryDy=0;entryPerimeter=0;" parent="1" source="PkMX_lYDS1bQ4Ew8CNIa-39" target="PkMX_lYDS1bQ4Ew8CNIa-43" edge="1">
          <mxGeometry width="50" height="50" relative="1" as="geometry">
            <mxPoint x="1020" y="670" as="sourcePoint" />
            <mxPoint x="1160" y="560" as="targetPoint" />
          </mxGeometry>
        </mxCell>
        <mxCell id="PkMX_lYDS1bQ4Ew8CNIa-45" value="" style="endArrow=classic;html=1;rounded=0;exitX=1;exitY=0.5;exitDx=0;exitDy=0;exitPerimeter=0;entryX=0;entryY=0.5;entryDx=0;entryDy=0;entryPerimeter=0;" parent="1" source="PkMX_lYDS1bQ4Ew8CNIa-38" target="PkMX_lYDS1bQ4Ew8CNIa-43" edge="1">
          <mxGeometry width="50" height="50" relative="1" as="geometry">
            <mxPoint x="1010" y="480" as="sourcePoint" />
            <mxPoint x="1010" y="530" as="targetPoint" />
          </mxGeometry>
        </mxCell>
        <mxCell id="PkMX_lYDS1bQ4Ew8CNIa-46" value="OLED Display Sequence" style="text;html=1;strokeColor=none;fillColor=none;align=center;verticalAlign=middle;whiteSpace=wrap;rounded=0;fontSize=24;" parent="1" vertex="1">
          <mxGeometry x="-790" y="190" width="290" height="80" as="geometry" />
        </mxCell>
        <mxCell id="PkMX_lYDS1bQ4Ew8CNIa-48" value="As of version 2024.3.1" style="text;html=1;strokeColor=none;fillColor=none;align=center;verticalAlign=middle;whiteSpace=wrap;rounded=0;" parent="1" vertex="1">
          <mxGeometry x="-780" y="250" width="130" height="30" as="geometry" />
        </mxCell>
        <mxCell id="H5PknQgmsZWOqS9MuiEW-1" value="WiFi?" style="rhombus;whiteSpace=wrap;html=1;fillColor=#f0a30a;fontColor=#000000;strokeColor=#BD7000;" vertex="1" parent="1">
          <mxGeometry x="-380" y="510" width="80" height="80" as="geometry" />
        </mxCell>
        <mxCell id="H5PknQgmsZWOqS9MuiEW-2" value="Yes" style="endArrow=classic;html=1;rounded=0;exitX=1;exitY=0.5;exitDx=0;exitDy=0;" edge="1" parent="1" source="H5PknQgmsZWOqS9MuiEW-1" target="PkMX_lYDS1bQ4Ew8CNIa-13">
          <mxGeometry x="-0.2" width="50" height="50" relative="1" as="geometry">
            <mxPoint x="-510" y="470" as="sourcePoint" />
            <mxPoint x="-350" y="560" as="targetPoint" />
            <mxPoint as="offset" />
          </mxGeometry>
        </mxCell>
        <mxCell id="H5PknQgmsZWOqS9MuiEW-3" value="No" style="endArrow=classic;html=1;rounded=0;exitX=0.5;exitY=1;exitDx=0;exitDy=0;edgeStyle=orthogonalEdgeStyle;entryX=0;entryY=0.5;entryDx=0;entryDy=0;fillColor=#60a917;strokeColor=#2D7600;" edge="1" parent="1" source="H5PknQgmsZWOqS9MuiEW-1" target="PkMX_lYDS1bQ4Ew8CNIa-9">
          <mxGeometry x="-0.7647" width="50" height="50" relative="1" as="geometry">
            <mxPoint x="-490" y="630" as="sourcePoint" />
            <mxPoint x="-280" y="670" as="targetPoint" />
            <mxPoint as="offset" />
          </mxGeometry>
        </mxCell>
        <mxCell id="H5PknQgmsZWOqS9MuiEW-4" value="" style="endArrow=classic;html=1;rounded=0;exitX=0.5;exitY=1;exitDx=0;exitDy=0;exitPerimeter=0;entryX=0.5;entryY=0;entryDx=0;entryDy=0;" edge="1" parent="1" source="PkMX_lYDS1bQ4Ew8CNIa-13" target="PkMX_lYDS1bQ4Ew8CNIa-9">
          <mxGeometry width="50" height="50" relative="1" as="geometry">
            <mxPoint x="-330" y="480" as="sourcePoint" />
            <mxPoint x="-330" y="520" as="targetPoint" />
          </mxGeometry>
        </mxCell>
        <mxCell id="H5PknQgmsZWOqS9MuiEW-5" value="" style="endArrow=classic;html=1;rounded=0;exitX=1;exitY=0.5;exitDx=0;exitDy=0;exitPerimeter=0;entryX=0;entryY=1;entryDx=0;entryDy=0;" edge="1" parent="1" source="PkMX_lYDS1bQ4Ew8CNIa-23" target="PkMX_lYDS1bQ4Ew8CNIa-26">
          <mxGeometry width="50" height="50" relative="1" as="geometry">
            <mxPoint x="150" y="560" as="sourcePoint" />
            <mxPoint x="260" y="472" as="targetPoint" />
          </mxGeometry>
        </mxCell>
        <mxCell id="PkMX_lYDS1bQ4Ew8CNIa-35" value="No" style="endArrow=classic;html=1;rounded=0;exitX=0.5;exitY=0;exitDx=0;exitDy=0;edgeStyle=orthogonalEdgeStyle;entryX=0;entryY=0.5;entryDx=0;entryDy=0;fillColor=#60a917;strokeColor=#2D7600;" parent="1" source="PkMX_lYDS1bQ4Ew8CNIa-26" target="PkMX_lYDS1bQ4Ew8CNIa-31" edge="1">
          <mxGeometry x="-0.7897" width="50" height="50" relative="1" as="geometry">
            <mxPoint x="590" y="290" as="sourcePoint" />
            <mxPoint x="690" y="320" as="targetPoint" />
            <Array as="points">
              <mxPoint x="470" y="390" />
              <mxPoint x="750" y="390" />
              <mxPoint x="750" y="440" />
            </Array>
            <mxPoint as="offset" />
          </mxGeometry>
        </mxCell>
      </root>
    </mxGraphModel>
  </diagram>
</mxfile>
